<?xml version="1.0" encoding="UTF-8"?>
<svg id="Capa_1" data-name="Capa 1" xmlns="http://www.w3.org/2000/svg" version="1.1" viewBox="0 0 310 150">
  <defs>
    <style>
      .cls-1 {
        fill: #76b926;
      }

      .cls-1, .cls-2 {
        stroke-width: 0px;
      }

      .cls-2 {
        fill: #153c72;
      }
    </style>
  </defs>
  <g>
    <path class="cls-2" d="M238.13,145.28c-2.58,0-5.17,0-7.75,0-.98,0-1.85-.35-2.62-.93-1.43-1.08-2.11-2.56-2.08-4.33.02-1.93-.25-3.79-.85-5.62-.54-1.67-1.27-3.24-2.27-4.69-.52-.76-1.1-1.47-1.72-2.15-.8-.87-1.62-1.73-2.35-2.66-.78-.99-1.49-2.04-2.18-3.09-.76-1.15-1.47-2.33-2.08-3.56-.56-1.12-1.14-2.23-1.65-3.37-.82-1.81-1.56-3.65-2.1-5.56-.48-1.73-.8-3.48-1.08-5.25-.33-2.08-.31-4.16-.3-6.25,0-.99.13-1.97.28-2.94.08-.53.15-1.07.24-1.6.12-.71.52-1.23,1.14-1.6.39-.23.8-.35,1.27-.38,1.13-.06,2.45,1.08,2.54,2.32.03.38-.05.78-.12,1.16-.21,1.04-.32,2.09-.32,3.15,0,1.14,0,2.27.03,3.41.02,1,.2,1.98.36,2.97.25,1.56.62,3.08,1.1,4.58.26.81.6,1.59.9,2.38.73,1.91,1.68,3.72,2.66,5.51.8,1.47,1.71,2.88,2.7,4.24,1.09,1.49,2.37,2.8,3.58,4.18.95,1.08,1.73,2.29,2.42,3.55.39.73.75,1.47,1.07,2.24.49,1.21.92,2.45,1.17,3.74.1.53.26,1.05.33,1.58.11.77.18,1.55.25,2.33.03.4.03.8.03,1.2,0,.3.1.42.41.42,1.61.02,3.22.04,4.82.05,3.03,0,6.06,0,9.1,0,.05,0,.09,0,.14,0,.32-.02.39-.1.4-.43,0-.15,0-.3,0-.45,0-.91.03-1.82,0-2.72-.05-1.3.98-2.28,1.99-2.54.29-.07.62-.06.92-.02.51.06,1.02.18,1.53.23.62.06,1.24.1,1.85.12,2.24.05,4.48.06,6.72-.05.3-.02.6-.03.89-.1,1.22-.3,2.47.5,2.87,1.65.09.26.14.53.13.81,0,.8,0,1.61,0,2.41,0,.19-.02.39-.02.58-.01.3.1.41.41.42,1.81,0,3.63.02,5.44.03,2.7,0,5.4,0,8.1,0,.15,0,.3,0,.45.01.4,0,.52-.11.52-.5,0-.79,0-1.58-.02-2.38-.03-1.42.13-2.82.5-4.19.27-1.02.62-2.01,1.08-2.97.56-1.17,1.21-2.29,2.02-3.32.63-.8,1.34-1.54,2.09-2.24.96-.9,1.95-1.78,2.88-2.72.93-.94,1.8-1.92,2.6-2.98.82-1.08,1.6-2.18,2.31-3.34.5-.82.94-1.68,1.38-2.54.27-.53.54-1.07.75-1.62.4-1.04.77-2.09,1.14-3.13.28-.79.81-1.32,1.6-1.58.32-.11.65-.15.98-.14.98.02,1.95.05,2.93.04.79-.01,1.37-.42,1.77-1.08.21-.35.34-.73.26-1.15-.02-.11-.01-.23-.01-.34,0-3.55-.02-7.1,0-10.64,0-1.04-.89-1.96-1.9-2.05-.25-.02-.5,0-.76,0-.84,0-1.68-.04-2.51,0-1.31.07-2.2-.74-2.57-1.78-.26-.73-.53-1.47-.82-2.19-.69-1.69-1.53-3.31-2.51-4.86-1.24-1.97-2.65-3.8-4.26-5.49-1.18-1.24-2.42-2.41-3.74-3.51-.2-.17-.38-.36-.55-.56-.28-.32-.41-.71-.44-1.13-.02-.23-.05-.46-.11-.68-.48-1.85-.6-3.7-.26-5.59.2-1.13.49-2.23.87-3.32.37-1.08.94-2.07,1.45-3.08.07-.13.19-.24.24-.37.04-.09.03-.24-.03-.32-.04-.06-.2-.11-.27-.08-.41.17-.86.13-1.29.22-1.61.33-3.18.79-4.67,1.52-.89.43-1.75.92-2.55,1.5-1.25.9-2.32,1.98-3.2,3.24-.1.14-.2.28-.3.42-.67.84-1.55,1.13-2.58.9-.73-.16-1.44-.4-2.16-.59-1.5-.41-3.01-.74-4.55-.96-.66-.09-1.31-.21-1.97-.3-1-.12-2.28-1.29-2.05-2.86.2-1.32,1.47-2.22,2.61-2.1.23.02.46.05.68.08,1.03.16,2.07.3,3.09.49.93.17,1.86.4,2.79.62.23.05.47.11.69.22.27.13.45.06.64-.15.36-.39.73-.76,1.1-1.14,1.53-1.58,3.3-2.81,5.27-3.76.61-.29,1.21-.61,1.85-.84,1.14-.41,2.29-.82,3.49-1.02.16-.03.31-.06.47-.1,1.22-.32,2.47-.42,3.72-.3.96.09,1.76.54,2.48,1.16.85.73,1.42,1.65,1.71,2.73.22.81.21,1.61-.01,2.42-.17.62-.45,1.2-.79,1.75-.91,1.49-1.58,3.08-1.86,4.82-.17,1.08-.13,2.15.09,3.22.09.41.29.73.61,1,1.58,1.35,3.03,2.84,4.4,4.41,1.25,1.43,2.36,2.96,3.4,4.55.98,1.5,1.82,3.08,2.58,4.71.25.54.48,1.09.71,1.64.17.42.23.46.7.43,1.31-.09,2.6.1,3.8.62,1.77.76,3.01,2.06,3.76,3.84.35.84.5,1.71.49,2.62-.01,3.75-.02,7.51,0,11.26,0,1.64-.54,3.07-1.54,4.32-.89,1.11-2.01,1.92-3.38,2.32-.94.27-1.91.39-2.89.32-.47-.04-.52,0-.69.43-.53,1.29-1.03,2.6-1.7,3.84-.61,1.12-1.2,2.25-1.93,3.3-.74,1.06-1.46,2.14-2.26,3.17-1.56,2.02-3.38,3.81-5.28,5.52-.8.72-1.55,1.47-2.19,2.33-.55.73-.99,1.54-1.38,2.38-.54,1.17-.84,2.4-1,3.67-.02.17-.03.34-.03.51,0,1.17,0,2.34,0,3.51.01,1.56-.6,2.83-1.77,3.84-.93.81-2.02,1.19-3.25,1.19-4.97,0-9.95,0-14.92-.01-1.8,0-3.18-.82-4.18-2.32-.56-.84-.82-1.76-.78-2.77,0-.15,0-.3-.01-.45-.02-.2-.08-.25-.3-.25-.26,0-.53.02-.79.02-1.57,0-3.15-.01-4.72-.03-.22,0-.43-.04-.65-.07-.33-.05-.4,0-.37.34.06.76,0,1.51-.28,2.23-.54,1.34-1.49,2.29-2.8,2.9-.54.25-1.11.37-1.7.37-2.56,0-5.12,0-7.68,0h0Z"/>
    <g>
      <path class="cls-1" d="M250.99,90.05c-.11-.14-.2-.31-.34-.41-.65-.48-1.21-1.05-1.78-1.62-.76-.75-1.51-1.5-2.24-2.27-.51-.54-.99-1.12-1.47-1.7-.5-.61-.98-1.23-1.45-1.85-.8-1.05-1.55-2.12-2.22-3.26-.52-.88-1.06-1.75-1.55-2.64-.42-.77-.8-1.56-1.17-2.35-.34-.73-.68-1.46-.98-2.2-.33-.81-.63-1.63-.91-2.46-.28-.81-.55-1.62-.76-2.45-.16-.62-.36-1.22-.47-1.86-.11-.65-.34-1.27-.44-1.92-.08-.47-.24-.92-.24-1.4,0-.4-.15-.79-.2-1.19-.05-.38-.13-.76-.14-1.14,0-.27-.06-.55-.1-.82-.01-.09-.04-.18-.05-.27-.05-1.28-.25-2.55-.2-3.84.03-.64,0-1.28,0-1.93,0-.75.08-1.5.15-2.25.06-.67.12-1.35.19-2.02.04-.35.08-.69.12-1.03.07-.51.14-1.01.22-1.51.05-.31.1-.61.18-.91.17-.65.23-1.33.44-1.98.18-.59.3-1.2.44-1.81.04-.18.09-.35.15-.52.29-.8.52-1.63.81-2.44.38-1.06.78-2.12,1.24-3.16.4-.9.8-1.8,1.26-2.67.6-1.15,1.21-2.3,1.93-3.38.24-.36.48-.73.7-1.11.05-.09.07-.2.11-.33-.2-.09-.37-.19-.55-.26-.55-.2-1.1-.39-1.65-.58-.68-.22-1.35-.44-2.04-.64-.96-.28-1.92-.57-2.89-.82-.62-.16-1.25-.27-1.87-.4-.25-.05-.48-.15-.74-.18-.45-.05-.89-.2-1.34-.26-.49-.06-.95-.26-1.46-.23-.05,0-.11,0-.16-.02-.51-.16-1.05-.17-1.57-.26-.32-.06-.66-.05-.98-.1-.9-.14-1.82-.17-2.72-.3-.11-.02-.22-.03-.33-.03-1.69-.02-3.37-.05-5.06-.06-1.03,0-2.05.03-3.08.06-.24,0-.47.04-.71.06-.65.07-1.31.15-1.96.22-.71.08-1.42.16-2.13.24-.11.01-.21.05-.32.07-.2.04-.4.08-.59.11-.47.07-.94.13-1.41.21-.52.09-1.04.19-1.56.3-.55.12-1.1.24-1.65.37-.69.16-1.38.33-2.07.51-.46.12-.91.27-1.36.4-.68.21-1.36.41-2.04.62-.12.04-.23.11-.35.16-.08.03-.17.03-.3.05.02-.13.01-.22.04-.3.27-.81.56-1.62.83-2.44.19-.57.35-1.15.54-1.72.34-1.04.69-2.08,1.03-3.11.03-.09.06-.17.09-.26.09-.29.25-.44.57-.5.77-.15,1.53-.35,2.29-.53.32-.08.63-.17.96-.24.39-.08.79-.16,1.18-.23.61-.11,1.22-.24,1.83-.33.52-.08,1.05-.14,1.58-.2.13-.02.25-.03.38-.05.56-.08,1.12-.18,1.68-.24.53-.06,1.07-.03,1.59-.11,1.14-.17,2.3-.18,3.45-.23,1.17-.05,2.35-.05,3.52-.03.91.01,1.83.09,2.74.14.24.01.48,0,.71,0,.26.01.51.05.76.07.46.04.91.09,1.37.1.42.02.84.07,1.26.1.64.05,1.25.25,1.9.26.34,0,.68.12,1.02.19.3.06.61.1.92.16.27.05.54.11.8.17.68.14,1.36.24,2.04.42.63.17,1.28.29,1.92.44.18.04.35.1.53.15.98.27,1.97.54,2.94.83.84.25,1.67.53,2.5.8.79.26,1.57.58,2.35.89,1.18.48,2.37.97,3.54,1.47.57.25,1.12.53,1.67.82,1.01.51,2.01,1.03,3.01,1.56.11.06.2.14.32.22-.42.5-.82.97-1.21,1.44-.38.46-.77.93-1.14,1.41-.41.53-.8,1.09-1.21,1.63-.48.64-.92,1.31-1.34,2-.19.31-.42.6-.61.92-.41.71-.83,1.42-1.21,2.14-.51.95-1.02,1.9-1.47,2.88-.45.98-.86,1.97-1.25,2.98-.37.95-.71,1.92-1.02,2.89-.3.92-.6,1.84-.82,2.78-.15.64-.37,1.26-.43,1.92-.03.34-.16.67-.24,1.01-.03.14-.05.29-.07.43-.02.13-.01.26-.04.38-.25.94-.32,1.91-.44,2.87-.07.54-.17,1.08-.2,1.63-.03.53-.01,1.06-.06,1.59-.11,1.21-.13,2.42-.1,3.62.01.6.07,1.21.1,1.81.04.66.06,1.32.11,1.97.05.58.15,1.16.22,1.74.05.38.07.77.13,1.14.07.43.21.86.24,1.29.05.61.21,1.19.36,1.77.1.4.14.83.22,1.24.05.23.12.46.19.68.22.77.43,1.54.65,2.31.06.19.14.38.2.57.3.94.62,1.87.99,2.78.27.66.54,1.32.82,1.97.41.96.86,1.89,1.35,2.81.4.76.78,1.52,1.2,2.28.22.4.49.77.72,1.16.67,1.13,1.43,2.21,2.2,3.28.44.61.9,1.19,1.36,1.78.04.05.11.09.21.17.02-.24-.09-.39-.17-.54-.62-1.11-1.17-2.26-1.7-3.42-.31-.68-.66-1.35-.93-2.05-.38-.98-.79-1.96-1.13-2.96-.19-.55-.38-1.1-.56-1.66-.26-.8-.49-1.6-.71-2.41-.17-.63-.3-1.28-.44-1.92-.04-.2-.11-.39-.14-.58-.12-.66-.2-1.34-.36-1.99-.1-.41-.15-.82-.17-1.25,0-.2-.07-.4-.11-.59-.02-.11-.04-.21-.05-.32-.03-.31-.06-.62-.09-.93-.03-.44-.06-.88-.08-1.32-.02-.27,0-.55-.04-.82-.13-1.17-.02-2.34-.02-3.52,0-.55.04-1.1.06-1.65,0-.16.03-.33.04-.49.05-.42.15-.83.12-1.26,0-.11.03-.22.05-.32.04-.29.09-.58.13-.87.02-.13.03-.26.05-.38.1-.61.19-1.23.32-1.83.13-.64.33-1.27.46-1.91.15-.75.39-1.48.58-2.22.11-.44.25-.88.4-1.31.27-.77.56-1.54.86-2.3.37-.93.75-1.86,1.14-2.79.13-.3.27-.6.42-.89.31-.62.62-1.23.94-1.84.4-.78.8-1.56,1.27-2.3.28-.43.5-.89.77-1.32.75-1.17,1.48-2.35,2.31-3.47.49-.66.95-1.34,1.44-1.99.54-.71,1.1-1.41,1.66-2.11.43-.54.87-1.08,1.32-1.6.79-.91,1.6-1.81,2.4-2.71.43-.48.87-.94,1.3-1.41.06-.06.11-.14.18-.23-.11-.12-.21-.23-.32-.32-1.2-1.03-2.43-2.04-3.73-2.95-1.24-.87-2.52-1.7-3.77-2.54-.14-.09-.26-.2-.4-.29-.18-.12-.37-.23-.56-.34-.27-.15-.54-.31-.81-.46-.93-.51-1.84-1.06-2.78-1.53-.83-.42-1.66-.86-2.53-1.19-.31-.12-.59-.29-.89-.42-.75-.32-1.5-.65-2.28-.91-.5-.17-.98-.4-1.48-.58-.46-.17-.93-.31-1.4-.47-.57-.19-1.14-.4-1.72-.56-.54-.15-1.07-.36-1.63-.45-.16-.03-.31-.1-.47-.14-.64-.16-1.27-.34-1.91-.48-.98-.21-1.98-.34-2.95-.58-.59-.15-1.21-.1-1.78-.31-.64.02-1.26-.25-1.91-.21-.22.01-.44-.05-.65-.08-.09-.01-.18-.04-.27-.05-1.11-.03-2.22-.27-3.34-.21-.49.02-.99-.03-1.48-.05-.1,0-.2-.05-.35-.09.16-.21.27-.39.42-.54.96-.98,1.9-1.97,2.9-2.91.9-.85,1.87-1.64,2.8-2.45.2-.18.42-.26.7-.2.27.06.55.05.82.08.18.02.37.03.55.06.67.1,1.33.23,2,.29.43.04.86.17,1.29.26.09.02.18.06.27.06.52,0,1,.19,1.5.29.39.08.79.15,1.18.24.59.14,1.17.29,1.75.44.32.08.64.15.96.24.89.26,1.79.51,2.67.8.59.19,1.18.38,1.76.58,1.22.42,2.44.88,3.63,1.38,1.11.47,2.21.96,3.29,1.48,1.43.68,2.83,1.42,4.21,2.2.86.48,1.69,1.01,2.53,1.53.57.36,1.14.73,1.69,1.11.63.44,1.25.9,1.87,1.35,1.07.77,2.13,1.54,3.14,2.38,1.07.88,2.13,1.78,3.14,2.73,1.04.98,2.04,1.99,3.04,3.01.67.69,1.3,1.42,1.98,2.16-.28.23-.52.44-.78.63-.77.56-1.51,1.15-2.24,1.76-.41.34-.84.65-1.24.99-.86.74-1.71,1.49-2.56,2.24-1.38,1.21-2.64,2.53-3.91,3.84-.43.45-.82.94-1.24,1.39-.57.61-1.08,1.29-1.61,1.93-.49.59-.97,1.19-1.42,1.81-.45.6-.87,1.22-1.28,1.84-.42.64-.83,1.29-1.24,1.94-.59.95-1.16,1.9-1.66,2.9-.44.88-.88,1.75-1.31,2.64-.13.26-.23.54-.34.81-.5,1.21-.99,2.43-1.4,3.68-.29.86-.51,1.75-.76,2.63-.02.07-.05.14-.06.21-.25.91-.51,1.83-.62,2.78-.04.34-.15.68-.2,1.02-.15.88-.3,1.77-.43,2.65-.05.31-.04.62-.08.93-.14,1.04-.17,2.08-.25,3.12-.09,1.05-.07,2.09-.05,3.13.02.8.07,1.61.13,2.41.06.8.13,1.6.2,2.41.04.47.07.94.16,1.41.11.55.13,1.12.2,1.68.04.33.1.65.16.97.1.52.21,1.04.31,1.56.07.39.14.79.21,1.19.05.27.11.54.18.8.14.57.28,1.13.42,1.7.15.6.29,1.2.44,1.81.02.09.05.17.08.26.15.54.3,1.09.46,1.67-.26.04-.47,0-.67-.08-1.4-.51-2.81-1-4.18-1.6-2.01-.87-3.96-1.86-5.83-3.01-.9-.56-1.78-1.14-2.64-1.77-.94-.69-1.88-1.39-2.76-2.16-1.05-.92-2.09-1.87-3.02-2.92-.64-.72-1.31-1.43-1.91-2.19-.92-1.16-1.81-2.34-2.58-3.61-.54-.89-1.08-1.78-1.58-2.69-.44-.8-.86-1.61-1.2-2.46-.23-.58-.5-1.13-.73-1.71-.24-.59-.46-1.19-.68-1.79-.19-.51-.38-1.03-.54-1.55-.16-.5-.28-1.02-.43-1.53-.04-.14-.11-.27-.15-.41-.17-.63-.38-1.26-.47-1.91-.11-.72-.36-1.41-.42-2.15-.03-.4-.16-.79-.23-1.18-.04-.2-.06-.4-.08-.6-.02-.15,0-.3-.05-.44-.16-.6-.17-1.23-.28-1.84-.06-.32-.05-.66-.08-.98-.04-.57-.13-1.12-.13-1.7,0-.47-.09-.95-.12-1.42-.03-.4-.05-.81-.05-1.21,0-1.39-.02-2.79,0-4.18.01-.82,0-1.65.16-2.47.01-.07.02-.15.02-.22-.02-.59.04-1.17.11-1.75.06-.51.08-1.02.12-1.53.03-.36.07-.73.11-1.09.01-.11.04-.21.06-.32.04-.29.08-.58.12-.87.04-.31.06-.62.12-.92.05-.26.07-.5,0-.79-.12-.02-.24-.05-.36-.05-1.01,0-2.01-.07-3.02-.16-.44-.04-.88-.02-1.32-.02-1.16,0-2.31.09-3.46.15-.29.02-.59,0-.88.03-.44.03-.87.09-1.31.14-.04,0-.07.02-.11.02-.58.06-1.16.11-1.75.17-.16.02-.33.03-.49.06-.65.1-1.3.19-1.95.3-.34.06-.68.14-1.02.22-.62.15-1.25.27-1.86.43-.67.17-1.34.35-2,.53-1.05.3-2.08.66-3.11,1.04-1.15.43-2.26.92-3.37,1.44-1.61.76-3.16,1.61-4.65,2.57-.99.65-1.95,1.36-2.91,2.05-.15.11-.27.24-.38.34-.08.6-.15,1.16-.22,1.72,0,.05-.01.11-.01.16-.03.93-.05,1.87-.08,2.8,0,.15,0,.29-.03.44-.05.31-.09.62.02.92.02.05.03.11.01.16-.13.4.03.8-.03,1.2-.01.07.02.14.03.21.02.2.05.4.07.6.03.36.04.73.08,1.09.08.82.18,1.63.27,2.45.01.09.03.18.05.27.12.55.23,1.11.31,1.67.05.38.17.74.26,1.12.14.6.28,1.21.43,1.81.03.14.1.28.14.42.26.89.53,1.78.84,2.65.31.86.65,1.7.99,2.55.44,1.09.97,2.12,1.5,3.17.4.8.87,1.56,1.33,2.33.41.69.86,1.36,1.29,2.03.19.29.4.57.6.85.12.16.26.32.35.49.18.33.42.59.66.87.41.47.79.95,1.17,1.42-.06.14-.13.1-.19.06-.55-.32-1.11-.65-1.66-.97-.95-.55-1.8-1.24-2.66-1.93-1.15-.92-2.17-1.96-3.17-3.03-.7-.75-1.33-1.55-1.93-2.38-.53-.72-1.03-1.46-1.49-2.23-.58-.97-1.14-1.96-1.6-3-.28-.62-.57-1.23-.82-1.85-.31-.8-.65-1.59-.88-2.42-.18-.63-.42-1.25-.6-1.88-.17-.58-.3-1.17-.44-1.75-.06-.23-.11-.46-.17-.69-.15-.69-.31-1.39-.46-2.09-.04-.21,0-.45-.07-.65-.13-.42-.14-.86-.25-1.29-.04-.16-.05-.33-.07-.49-.04-.34-.08-.69-.13-1.03,0-.02-.01-.04-.01-.05-.07-.64-.16-1.27-.19-1.91-.02-.59-.06-1.17-.15-1.75-.02-.13-.04-.25-.04-.38-.03-1.08-.08-2.16-.1-3.24-.02-.93,0-1.87-.01-2.8,0-.28.09-.44.32-.57.56-.32,1.09-.66,1.65-.97.78-.44,1.56-.87,2.35-1.28,1.62-.83,3.26-1.64,4.93-2.36.95-.41,1.93-.78,2.89-1.17.51-.2,1.01-.43,1.52-.61.77-.27,1.56-.51,2.33-.77.59-.19,1.17-.4,1.76-.59.45-.14.91-.27,1.36-.4.26-.07.53-.13.79-.2.53-.14,1.05-.33,1.58-.43.68-.13,1.33-.39,2.03-.45.2-.02.39-.1.58-.15.73-.15,1.46-.31,2.2-.45.3-.06.62-.07.92-.14.21-.05.43-.09.64-.12.58-.07,1.15-.2,1.73-.26.67-.07,1.33-.29,2.01-.24.11,0,.22-.01.33-.03.81-.16,1.64-.15,2.45-.27.13-.02.26-.03.38-.03,1.01,0,2.01-.09,3.01-.16.16-.01.33-.01.49-.01,1.08,0,2.16-.02,3.25,0,.95.01,1.91.02,2.85.11.77.08,1.54.01,2.3.12.42.06.84.07,1.26.1.11,0,.22.04.33.05.38.04.76.09,1.14.13.27.03.55.05.82.09.21.03.28.13.23.35-.06.3-.16.6-.23.9-.14.64-.38,1.26-.47,1.91-.03.22-.11.42-.16.64-.15.62-.3,1.24-.46,1.86-.02.07-.04.14-.04.22,0,.48-.19.93-.28,1.39-.09.47-.16.94-.24,1.4-.1.56-.21,1.11-.29,1.67-.09.56-.16,1.12-.24,1.68-.02.18-.05.36-.07.54-.03.25-.05.51-.09.76-.03.24-.09.47-.11.7-.05.56-.05,1.14-.14,1.7-.12.76-.07,1.54-.17,2.3-.03.2.01.4.01.6,0,.18,0,.36,0,.55-.04.9-.09,1.79-.13,2.69,0,.07-.01.15,0,.22.2.9,0,1.83.18,2.74-.03.72.12,1.42.17,2.13.03.51.08,1.02.18,1.52.1.5.11,1.02.18,1.52.05.38.12.76.2,1.13.16.79.32,1.57.49,2.35.05.21.1.43.17.63.19.53.25,1.1.46,1.63.19.47.27.98.42,1.47.15.49.33.97.51,1.44.29.77.57,1.54.89,2.29.33.77.71,1.52,1.08,2.28.6,1.23,1.27,2.42,2,3.59.71,1.13,1.45,2.23,2.26,3.3.55.73,1.12,1.44,1.7,2.15.85,1.03,1.76,2.01,2.71,2.95.81.79,1.62,1.58,2.46,2.35.78.71,1.59,1.4,2.44,2.04,1.08.81,2.15,1.64,3.24,2.44.26.19.51.42.85.48.02.04.05.07.07.11.02-.02.03-.04.05-.07-.04-.01-.09-.02-.13-.03Z"/>
      <path class="cls-1" d="M217.27,78.06c.49,1.21.98,2.42,1.49,3.67-.07.06-.14.15-.23.18-.74.31-1.49.6-2.23.9-.34.14-.67.28-1.01.41-.34.14-.68.27-1.04.42-.09-.12-.18-.21-.23-.31-.38-.93-.74-1.87-1.12-2.8-.13-.32-.26-.35-.61-.26-.65.18-1.29.38-1.96.48-.52.08-1.04.19-1.56.26-.95.12-1.9.08-2.86.05-.49-.02-.97-.13-1.43-.33-.28-.12-.49-.3-.68-.53-.34-.42-.56-.9-.78-1.38-.24-.52-.38-1.07-.52-1.62-.03-.12-.03-.25-.03-.38,0-.48.3-.78.78-.83.11,0,.22-.02.33,0,.38.05.76.12,1.14.18.29.04.58.07.87.1.18.02.37,0,.55.03.86.11,1.72.08,2.58,0,.16-.01.33-.04.49-.03.55.03,1.04-.18,1.55-.31.06-.02.12-.07.2-.13-.05-.17-.08-.33-.14-.48-.5-1.23-1.01-2.47-1.51-3.7-.4-.98-.78-1.97-1.18-2.95-.28-.69-.58-1.38-.87-2.07-.05-.12-.1-.24-.13-.36-.06-.24-.17-.44-.34-.66-.13,0-.27-.03-.41-.03-.7,0-1.39.02-2.09-.07-.52-.07-1.05-.14-1.57-.23-.66-.11-1.27-.32-1.88-.56-1.07-.42-1.99-1.06-2.8-1.87-.66-.67-1.17-1.45-1.56-2.3-.2-.43-.38-.87-.52-1.33-.22-.74-.38-1.49-.37-2.26,0-.38,0-.77,0-1.15,0-.18.05-.36.09-.54.01-.07.05-.14.06-.21.08-.8.4-1.51.74-2.22.15-.31.33-.61.53-.9.67-.97,1.45-1.83,2.36-2.58.13-.1.27-.19.4-.29.08-.07.16-.15.24-.23-.13-.53-.37-1-.56-1.49-.28-.71-.59-1.41-.89-2.12-.07-.17-.13-.34-.18-.51-.04-.12,0-.22.11-.28.13-.07.26-.13.4-.18.74-.3,1.49-.59,2.23-.9.57-.24,1.14-.48,1.76-.68.15.3.31.58.43.88.35.84.68,1.69,1.02,2.53.03.07.04.14.07.21.14.35.25.4.58.3.16-.05.32-.08.47-.14.34-.15.72-.13,1.08-.19.94-.17,1.88-.28,2.84-.23.62.03,1.24.13,1.83.31.3.09.57.27.77.57.48.71.8,1.47,1.05,2.28.09.3.16.6.13.91-.03.37-.31.65-.68.67-.16,0-.34.03-.49-.01-.46-.11-.94-.13-1.41-.19-.82-.1-1.64-.1-2.46,0-.13.02-.26.05-.38.04-.49-.03-.92.18-1.43.22.1.6.42,1.07.59,1.6.18.55.42,1.08.64,1.62.21.52.43,1.04.65,1.56.22.52.44,1.04.66,1.56.22.54.44,1.08.65,1.62.21.52.41,1.05.62,1.59.47.01.93.02,1.39.03.68.02,1.36.02,2.03.14.05,0,.11.02.16.02.58-.06,1.12.13,1.69.18.23.02.46.1.69.17,1.67.49,3.11,1.33,4.21,2.72.53.68.93,1.44,1.26,2.23.31.74.5,1.52.66,2.31.05.23.07.47.08.71.01.31,0,.62,0,.93.04,1.35-.35,2.6-.96,3.79-.53,1.03-1.22,1.94-2.06,2.74-.46.44-.95.85-1.48,1.21-.18.13-.36.25-.5.46ZM215.38,73.4c.1-.04.15-.04.17-.06.75-.8,1.24-1.71,1.26-2.82,0-.27-.02-.55-.06-.82-.11-.89-.44-1.69-1-2.39-.4-.5-.94-.8-1.52-1.04-.47-.2-.97-.31-1.46-.45-.15-.04-.32-.09-.47.04,1.02,2.51,2.04,5.02,3.07,7.55ZM201.87,53.41c-.28.21-.44.45-.57.71-.37.68-.48,1.41-.44,2.18.06.98.41,1.83,1.07,2.57.57.64,1.31.96,2.09,1.23.15.05.31.05.52.09-.01-.14,0-.25-.03-.34-.25-.61-.51-1.21-.76-1.82-.13-.3-.24-.61-.36-.91-.3-.76-.6-1.52-.91-2.28-.18-.45-.38-.91-.59-1.42Z"/>
    </g>
  </g>
  <g>
    <g>
      <path class="cls-2" d="M84.04,135.91l-3.86,8.78h-10.37l17.83-35.66h12.64l5.08,35.66h-10.16l-.63-8.78h-10.53ZM94.04,128.72l-.63-6.3c-.21-2.01-.48-4.6-.74-6.67h-.11c-.95,2.06-1.9,4.66-2.91,6.72l-2.8,6.24h7.2Z"/>
      <path class="cls-2" d="M108.28,144.69l3.49-18.73h-3.23l1.38-7.3h3.23l.26-1.48c.48-2.75,1.69-6.14,4.55-8.41,2.49-2.06,5.61-2.59,8.25-2.59,1.8,0,3.33.26,4.23.69l-1.38,7.51c-.69-.26-1.48-.42-2.49-.42-2.01,0-3.49,1.43-3.86,3.33l-.26,1.38h4.76l-1.38,7.3h-4.71l-3.49,18.73h-9.36Z"/>
      <path class="cls-2" d="M156.95,144.69l2.65-14.02c.85-4.6,1.11-10,1.32-12.01h8.15c-.11,1.85-.21,3.7-.37,5.55h.16c1.85-3.44,4.97-6.19,9.1-6.19h1.59l-1.85,9.1h-1.16c-6.19,0-7.72,4.71-8.62,9.47l-1.53,8.09h-9.42Z"/>
      <path class="cls-2" d="M202.34,143.05c-3.81,1.96-8.46,2.27-10.9,2.27-7.94,0-12.59-3.91-12.59-11.64s6.19-15.66,16.4-15.66c5.5,0,10.37,2.7,10.37,8.52,0,6.19-5.98,8.89-17.88,8.57.16.53.53,1.16,1,1.59,1.11.95,2.86,1.38,5.03,1.38,2.8,0,5.61-.53,8.04-1.69l.53,6.67ZM194.14,124.64c-3.7,0-5.29,2.43-5.5,3.7,6.24,0,8.04-.58,8.04-2.12,0-.79-.95-1.59-2.54-1.59Z"/>
      <path class="cls-2" d="M143.35,118.03s-.1,0-.15,0c.04.15.09.3.14.45.68,2.12,1.4,3.75,1.4,3.75,0,0-4.22-.98-8.57-2.88-6.02,2.42-9.74,7.91-9.74,14.6,0,7.83,5.87,11.37,12.33,11.37,9.52,0,17.09-5.66,17.09-16.19,0-6.93-5.55-11.11-12.48-11.11ZM140.18,138.19c-2.33,0-3.86-1.43-3.86-4.34s1.43-8.68,5.87-8.68c2.7,0,3.76,2.01,3.76,4.44,0,3.39-1.69,8.57-5.77,8.57Z"/>
    </g>
    <g>
      <path class="cls-2" d="M9.56,72.02c2.14-.57,5.65-.87,9.12-.87,3.06,0,6.32.39,8.69,1.69,2.26,1.19,3.95,3.25,3.95,6.45,0,4.68-3.18,7.31-7.35,8.67l-.04.17c1.93.84,2.77,2.99,3.15,5.6.49,3.54.79,7.7,1.42,9.05h-7.25c-.28-.82-.7-3.38-1.1-7.38-.38-3.8-1.86-4.94-4.75-4.94h-2.41l-2.34,12.31H3.68l5.88-30.77ZM13.99,85.28h3.24c3.87,0,6.77-1.88,6.77-4.87s-2.6-3.74-5.44-3.74c-1.46,0-2.34.11-2.97.25l-1.6,8.36Z"/>
      <path class="cls-2" d="M51.3,101.38c-2.86,1.5-6.65,1.97-9.17,1.97-6.81,0-10.56-3.68-10.56-10.01,0-7.03,5.49-13.92,14.04-13.92,4.78,0,8.57,2.44,8.57,7.05,0,5.64-5.88,7.69-15.93,7.43.03.65.33,1.64.79,2.25,1,1.21,2.67,1.77,4.76,1.77,2.63,0,5.04-.58,6.98-1.54l.51,4.99ZM44.76,84.41c-3.56,0-5.44,2.7-5.82,4.4,5.92.03,8.56-.53,8.56-2.52,0-1.07-1.09-1.88-2.74-1.88Z"/>
      <path class="cls-2" d="M55.91,96.46c1.43.7,4.3,1.79,6.71,1.79,1.96,0,2.95-.87,2.95-1.91s-.77-1.8-3.05-2.76c-2.85-1.19-5.47-3.09-5.47-6.22,0-4.91,4.45-7.94,10.55-7.94,2.88,0,5.17.61,6.38,1.28l-1.71,4.91c-1.06-.47-2.83-1.09-5.17-1.09-1.76,0-2.94.7-2.94,1.82,0,.88,1.02,1.67,3.12,2.58,2.46,1.03,5.67,2.69,5.67,6.31,0,5.29-4.75,8.11-11.05,8.11-3.14,0-6.17-.86-7.69-2l1.71-4.89Z"/>
      <path class="cls-2" d="M73.08,112.11l4.33-22.88c.5-2.72,1.11-6.89,1.36-9.24h6.36l-.43,3.33h.09c2.01-2.55,4.88-3.88,7.85-3.88,5.21,0,8.17,4.11,8.17,9.17,0,8.02-5.66,14.76-14.03,14.76-2.11,0-3.87-.54-4.71-1.08h-.09l-1.89,9.84h-7ZM83.1,96.74c.83.78,2,1.26,3.53,1.26,3.6,0,6.78-4.22,6.78-9.05,0-1.9-.99-3.92-3.38-3.92-2.85,0-5.44,2.95-6.35,7.99l-.59,3.72Z"/>
      <path class="cls-2" d="M118.08,102.79c.05-1.36.2-3.04.33-4.74h-.09c-2.19,4.04-5.36,5.3-8.29,5.3-4.34,0-7.55-3.29-7.55-8.31,0-7.94,5.67-15.62,17.36-15.62,2.86,0,5.99.57,8.05,1.21l-2.35,11.66c-.56,3.03-1.01,7.53-.9,10.49h-6.54ZM119.98,84.99c-.53-.12-1.25-.21-2.05-.21-4.51,0-8.03,4.54-8.03,9.07,0,2.32,1.12,3.9,3.1,3.9,2.15,0,4.96-2.19,6.07-8.25l.91-4.51Z"/>
      <path class="cls-2" d="M128.74,102.79l6.38-33.36h7l-6.38,33.36h-7Z"/>
      <path class="cls-2" d="M169.12,69.43l-4.59,24.06c-.58,3.07-.98,6.49-1.06,9.3h-6.6l.34-3.82h-.09c-2.21,3.27-5.22,4.37-8.13,4.37-4.06,0-7.68-3.12-7.68-9.1,0-7.92,6.19-14.83,15.34-14.83.96,0,2.33.15,3.45.55l2.05-10.55h6.97ZM159.1,85.65c-.63-.48-1.79-.87-3.07-.87-4.25,0-7.34,3.77-7.34,8.35,0,2.98,1.42,4.62,3.54,4.62s4.9-2.14,5.85-7.15l1.02-4.95Z"/>
      <path class="cls-2" d="M193.62,89.29c0,8.7-6.36,14.06-14.57,14.06-5.82,0-10.57-3.5-10.57-9.95,0-7.95,5.95-13.98,14.44-13.98,6.25,0,10.7,3.99,10.7,9.86ZM175.82,93.31c0,3.01,1.75,4.7,4.27,4.7,3.92,0,6.18-4.6,6.18-8.41,0-2.32-1.1-4.83-4.19-4.83-4.32,0-6.27,5.15-6.27,8.54Z"/>
    </g>
  </g>
</svg>