<?xml version="1.0" encoding="UTF-8"?>
<svg id="Capa_1" data-name="Capa 1" xmlns="http://www.w3.org/2000/svg" version="1.1" viewBox="0 0 590 560">
  <defs>
    <style>
      .cls-1 {
        fill: #003b72;
        stroke-width: 0px;
      }
    </style>
  </defs>
  <path class="cls-1" d="M231.07,30.33c6.83,0,13.67,0,20.5,0,1.26.25,2.51.65,3.78.73,35.16,2.45,67.5,13.49,96.3,33.63,46.72,32.67,74.62,77.43,82.7,134.03,5.82,40.75-.8,79.6-19.65,116.24-3.91,7.6-8.41,14.88-12.82,22.63,10.28,2.07,17.68,8.2,24.67,15.23,33.03,33.19,66.07,66.37,99.35,99.31,9.04,8.95,17,18.26,19.51,31.15v10.74c-.32,1.07-.68,2.14-.96,3.22-4.07,15.92-13.62,26.79-29.63,31.21-16.31,4.5-30.08-.57-41.76-12.24-32.45-32.43-64.91-64.86-97.32-97.33-9.44-9.46-20.25-17.95-22.81-31.2-14.31,6.96-27.91,14.73-42.34,20.37-40.03,15.65-81.43,18.27-122.41,5.58-82.43-25.52-129.87-82.21-141.19-167.56-5.65-42.64,3.89-83.22,26.3-120.19,32.54-53.68,80.35-84.55,142.34-93.66,5.13-.75,10.29-1.28,15.43-1.9ZM387.07,225.78c-.14-80.51-65.57-145.82-146.04-145.77-80.61.05-145.85,65.35-145.76,145.9.09,80.58,65.57,146.07,145.88,145.9,80.44-.17,146.05-65.83,145.92-146.03Z"/>
</svg>