<?xml version="1.0" encoding="UTF-8"?>
<svg id="Capa_1" data-name="Capa 1" xmlns="http://www.w3.org/2000/svg" version="1.1" viewBox="0 0 590 560">
  <defs>
    <style>
      .cls-1 {
        fill: #003b72;
        stroke-width: 0px;
      }
    </style>
  </defs>
  <path class="cls-1" d="M544.74,214.26c-3.04,7.04-8.64,11.44-15.09,15.18-46.38,26.86-92.66,53.89-139.06,80.71-21.02,12.15-42.43,12.21-63.44.13-88.83-51.1-177.56-102.37-266.3-153.61-2.66-1.54-5.32-3.19-7.66-5.18-9.41-8-9.12-18.95.65-26.5,2.18-1.68,4.53-3.17,6.91-4.55,46.72-27.23,93.36-54.63,140.25-81.56,20.45-11.74,41.72-11.87,62.19-.1,89.13,51.23,178.09,102.75,267.13,154.12,6.17,3.56,11.41,7.91,14.41,14.54v6.83ZM112.27,158.01c.83.59,1.33,1.01,1.89,1.34,68.6,39.64,137.19,79.28,205.87,118.79,1.39.8,3.97.66,5.5-.07,21.14-10.16,41.87-10.6,61.97,2.5,2.48,1.61,4,.98,6.05-.22,16.54-9.67,33.11-19.29,49.67-28.92,11.35-6.6,22.71-13.2,34.59-20.1-9.33-4.48-19.22-8.61-19.55-20.02-.34-11.85,9.74-16.12,19.24-20.77-15.59-9-30.6-17.67-45.61-26.34-53.7-31.02-107.42-62.02-161.07-93.13-3.42-1.98-5.68-2.05-9.49-.04-19.61,10.34-39.55,10.24-59.1-.38-2.88-1.56-4.63-1.63-7.36-.03-26.19,15.35-52.47,30.55-78.72,45.8-1.28.74-2.5,1.58-4.01,2.55,22.67,12.89,22.66,24.16.14,39.04Z"/>
  <path class="cls-1" d="M360.02,530c-5.96-2.2-12.24-3.58-17.56-6.63-90.93-52.3-181.74-104.81-272.57-157.27-6.19-3.57-12.59-6.83-18.46-10.87-2.51-1.73-5.22-4.95-5.5-7.73-.41-4.04,3.39-6.18,7.11-7.57,8.93-3.34,17.18-1.66,25.18,2.95,47.1,27.21,94.23,54.38,141.34,81.57,45.28,26.14,90.59,52.24,135.8,78.51,3.59,2.08,6.13,1.92,9.64-.12,48.65-28.43,97.4-56.68,146.1-85.03,7.91-4.6,16.02-5.98,24.71-2.6,3.64,1.41,6.85,3.34,7.2,7.69.34,4.28-2.77,6.29-5.94,8.13-40.15,23.35-80.29,46.69-120.44,70.04-13.19,7.67-26.25,15.61-39.65,22.9-4.98,2.71-10.79,3.91-16.96,6.05Z"/>
  <path class="cls-1" d="M62.56,234.29c5.5,2.11,11.41,3.52,16.46,6.42,92.18,53.02,184.28,106.19,276.31,159.47,3.58,2.07,6.04,2.02,9.58-.05,48.64-28.42,97.4-56.65,146.1-84.98,7.74-4.5,15.71-5.89,24.26-2.73,3.8,1.4,7.36,3.18,7.73,7.77.36,4.51-3.13,6.43-6.4,8.34-40.14,23.35-80.27,46.7-120.41,70.05-13.05,7.59-26.09,15.2-39.18,22.74-11.06,6.37-22.29,6.48-33.33.11-97.18-56.06-194.32-112.17-291.47-168.28-3.27-1.89-6.87-3.92-6.47-8.32.43-4.67,4.16-6.75,8.23-7.93,2.62-.76,5.36-1.11,8.04-1.64.19-.32.37-.63.56-.95Z"/>
  <path class="cls-1" d="M360.1,375.71c-5.75-1.92-11.54-2.86-16.29-5.59-97.41-56-194.7-112.2-292.01-168.37-3.3-1.9-6.76-4.04-6.34-8.42.42-4.46,4-6.29,7.86-7.67,9.01-3.22,17.2-1.17,25.14,3.42,76.21,44.01,152.43,88,228.64,132,16.03,9.25,32.12,18.41,48.04,27.85,3.34,1.98,5.75,2.06,9.18.05,48.78-28.51,97.68-56.83,146.51-85.26,7.91-4.61,16.03-5.96,24.69-2.55,3.6,1.42,6.94,3.28,7.24,7.65.3,4.27-2.94,6.23-6.07,8.05-36.21,21.07-72.42,42.13-108.64,63.19-17.12,9.96-34.14,20.11-51.46,29.72-4.95,2.75-10.78,3.92-16.5,5.92Z"/>
  <path class="cls-1" d="M62.56,285.81c5.2,1.98,10.97,3.34,15.89,6.17,82.21,47.29,164.31,94.77,246.44,142.21,10.27,5.93,20.61,11.74,30.75,17.87,3.04,1.84,5.21,1.81,8.29.01,48.78-28.54,97.66-56.91,146.48-85.39,7.88-4.6,15.99-6.08,24.67-2.93,3.76,1.36,7.38,3.19,7.7,7.81.32,4.51-3.23,6.43-6.47,8.32-40.99,23.85-81.99,47.67-122.99,71.5-12.22,7.1-24.39,14.27-36.65,21.28-11.05,6.32-22.29,6.41-33.31.06-97.08-55.96-194.13-111.99-291.17-168.01-1.4-.81-2.81-1.68-4-2.75-4.07-3.64-3.96-8.57.92-11.35,3.82-2.18,8.39-3.06,13.47-4.81Z"/>
  <path class="cls-1" d="M300.07,225.77c-27.04-.03-54.1-3.84-76.95-22.12-20.42-16.34-21-39.64-1.52-56.72,3.99-3.5,8.53-6.54,13.2-9.09,16.7-9.15,34.8-12.92,53.74-13.67,20.9-.83,41.25,1.6,60.34,10.39,7.42,3.42,14.72,7.87,20.81,13.27,19.23,17.04,18.3,39.79-1.66,55.98-14.43,11.7-31.37,17.39-49.43,20.16-5.76.88-11.62,1.15-18.52,1.81ZM247.39,196.37c5.24,2.46,8.8,7.38,14.1,3.76,5.09-3.47,9.97-3.11,15.66-1.91,10.41,2.2,20.76,1.67,29.83-4.89,5.83-4.22,6.84-9.58,3.2-15.74-1.98-3.35-4.35-6.46-6.32-9.81-1.95-3.32-.73-5.82,2.87-6.55,2.27-.46,5.17-.69,7.06.33,4.47,2.43,8.52,5.65,12.71,8.58,1.41.98,2.95,3.14,4.07,2.92,4.57-.9,8.99-2.52,14.48-4.17-3.91-4.25-6.7-7.29-9.64-10.49,2.44-1.83,4.55-3.41,7.27-5.45-4.62-2.5-7.91-7.19-12.82-4.06-5.41,3.44-10.59,2.66-16.27,1.59-9.52-1.8-18.79-.94-27.09,4.67-5.53,3.73-6.66,8.41-3.41,14.29,1.64,2.97,3.74,5.69,5.61,8.54,3.82,5.78,1.95,9.57-5,9.96-7.61.42-14.15-2.81-18.11-8.72-4.16-6.22-8.44-6.39-14.19-3.58-.72.35-1.53.53-2.31.77-3.6,1.12-3.92,3.24-1.36,5.62,2.78,2.58,5.89,4.82,9.2,7.48-3.99,2.87-6.32,4.54-9.57,6.87Z"/>
  <path class="cls-1" d="M201.45,136.3c-4.06-.05-10.82-1.41-16.56-5.91-6.18-4.85-6.16-11.38-.08-16.38,9.59-7.89,30.2-7.8,39.75.17,5.77,4.82,5.79,11.31.04,16.15-4.54,3.82-11.91,6.01-23.14,5.97Z"/>
  <path class="cls-1" d="M386.33,213.17c6.97.03,13.6,1.3,19.32,5.55,6.74,5.01,6.77,11.94.18,17.02-9.88,7.62-29.27,7.52-39.04-.21-6.12-4.84-6.25-11.55-.14-16.44,5.72-4.58,12.54-5.84,19.68-5.92Z"/>
</svg>