<?xml version="1.0" encoding="UTF-8"?>
<svg id="Capa_1" data-name="Capa 1" xmlns="http://www.w3.org/2000/svg" version="1.1" viewBox="0 0 590 560">
  <defs>
    <style>
      .cls-1 {
        fill: #003b72;
        stroke-width: 0px;
      }
    </style>
  </defs>
  <path class="cls-1" d="M95.93,430.5c0-15.24-.17-30.49.04-45.73.41-30.14,20.11-56.99,48.69-66.27,3.51-1.14,4.76-2.93,5.51-6.34,6.94-31.52,5.51-63.3,3.66-95.17-1.28-22.1-3.23-44.4-1.67-66.38,2.78-39.11,22.7-69.55,53.99-92.48,59.76-43.8,146.06-35.62,195.91,18.74,27.08,29.53,37.67,64.46,32.58,104.44-3.01,23.68-5.28,47.5-6.53,71.33-1.02,19.47,2.54,38.61,8.97,57.13,1.08,3.1,2.72,4.63,5.89,5.61,28.75,8.86,49.16,35.02,50.01,65.33.89,31.68.95,63.39,1.14,95.1.07,11.54-7.11,20.72-18.62,23.18-37.04,7.93-74.06,15.95-111.27,23.01-28.76,5.46-57.86,9.93-87.25,7.15-25.31-2.39-50.61-5.56-75.69-9.68-27.81-4.58-55.4-10.53-83.04-16.08-14.71-2.95-21.35-11.17-21.46-26.11-.11-15.59-.02-31.18-.02-46.77-.28,0-.56,0-.85,0ZM207.28,177.45c.59,4,.91,7.6,1.67,11.11,7.78,36.05,38.65,64.13,75.61,68.88,35.42,4.55,70.01-14.74,86.9-48.95,11.89-24.08,13.7-48.65,2.14-73.55-1.85-3.98-4.08-6.08-8.97-5.88-15.56.64-31.16.51-46.72,1.13-17.17.69-33.28,5.69-47.01,15.94-19.11,14.27-39.71,25.07-63.62,31.31ZM260.18,268.89c-2.11,22.87-4.05,44.9-6.25,66.92-.37,3.67.84,5.21,4.14,6.39,24.43,8.73,48.77,8.68,73.2,0,3.47-1.23,4.33-3.02,3.88-6.51-1.95-15.1-3.66-30.23-5.49-45.34-.83-6.81-1.74-13.6-2.65-20.67-22.51,6.9-44.32,6.64-66.83-.77ZM194.97,323.21c2.56,4.09,5.29,8.72,8.27,13.19,3.82,5.72,8.66,10.92,11.58,17.04,5.78,12.15,2.89,22.82-7.13,31.78-3.21,2.87-6.51,5.8-9,9.26-3.59,4.99-4.25,10.35-.22,15.83,4.62,6.26,8.61,12.99,13.32,19.18,15.71,20.64,34.17,38.14,57.97,49.31,1.58.74,3.24,1.3,6.28,2.5-30.9-56.17-42.91-115.14-40.98-176.55-13.15,6.05-25.78,11.87-40.1,18.46ZM354.45,304.88c1.27,61.35-10.16,120.49-39.92,175.8,7.61-3.29,14.73-6.76,21.29-11.09,22.99-15.16,40.16-35.83,54.66-58.91,4.14-6.58,4.11-11.44-.75-17.52-2.46-3.07-5.56-5.66-8.51-8.31-9.33-8.39-12.39-18.51-7.32-29.94,2.95-6.64,7.73-12.57,12.24-18.39,3.53-4.56,6.87-8.94,7.21-13.78-13.29-6.1-25.9-11.9-38.89-17.87Z"/>
</svg>